<svg width="94" height="33" viewBox="0 0 94 33" fill="none" xmlns="http://www.w3.org/2000/svg">
<path d="M13.216 10.056C12.592 10.056 12.096 9.896 11.728 9.576C11.36 9.24 11.176 8.792 11.176 8.232C11.176 7.688 11.36 7.256 11.728 6.936C12.096 6.6 12.592 6.432 13.216 6.432C13.84 6.432 14.336 6.6 14.704 6.936C15.088 7.256 15.28 7.688 15.28 8.232C15.28 8.792 15.096 9.24 14.728 9.576C14.36 9.896 13.856 10.056 13.216 10.056ZM13.408 12.216C13.952 12.216 14.36 12.336 14.632 12.576C14.904 12.816 15.04 13.152 15.04 13.584V22.44C15.04 23 14.864 23.424 14.512 23.712C14.176 24 13.744 24.144 13.216 24.144C12.704 24.144 12.272 24 11.92 23.712C11.584 23.424 11.416 23 11.416 22.44V14.928H6.952V22.416C6.952 22.976 6.776 23.4 6.424 23.688C6.088 23.976 5.664 24.12 5.152 24.12C4.624 24.12 4.184 23.976 3.832 23.688C3.496 23.4 3.328 22.976 3.328 22.416V14.928H2.368C1.296 14.928 0.76 14.48 0.76 13.584C0.76 12.672 1.296 12.216 2.368 12.216H3.328C3.344 10.712 3.776 9.52 4.624 8.64C5.472 7.76 6.632 7.248 8.104 7.104L8.608 7.056C8.704 7.04 8.848 7.032 9.04 7.032C10.032 7.032 10.528 7.456 10.528 8.304C10.528 8.72 10.408 9.048 10.168 9.288C9.944 9.512 9.656 9.64 9.304 9.672L8.8 9.72C8.144 9.784 7.672 9.992 7.384 10.344C7.096 10.68 6.952 11.168 6.952 11.808V12.216H13.408ZM25.2059 11.928C26.6139 11.928 27.6619 12.344 28.3499 13.176C29.0379 13.992 29.3819 15.232 29.3819 16.896V22.44C29.3819 22.968 29.2139 23.384 28.8779 23.688C28.5579 23.992 28.1179 24.144 27.5579 24.144C26.9979 24.144 26.5579 23.992 26.2379 23.688C25.9179 23.384 25.7579 22.968 25.7579 22.44V17.064C25.7579 16.264 25.6059 15.68 25.3019 15.312C25.0139 14.944 24.5579 14.76 23.9339 14.76C23.1819 14.76 22.5739 15 22.1099 15.48C21.6619 15.96 21.4379 16.6 21.4379 17.4V22.44C21.4379 22.968 21.2779 23.384 20.9579 23.688C20.6379 23.992 20.1979 24.144 19.6379 24.144C19.0779 24.144 18.6299 23.992 18.2939 23.688C17.9739 23.384 17.8139 22.968 17.8139 22.44V13.632C17.8139 13.136 17.9819 12.736 18.3179 12.432C18.6699 12.128 19.1179 11.976 19.6619 11.976C20.1579 11.976 20.5579 12.128 20.8619 12.432C21.1819 12.72 21.3419 13.096 21.3419 13.56V13.896C21.7579 13.256 22.2939 12.768 22.9499 12.432C23.6219 12.096 24.3739 11.928 25.2059 11.928ZM42.1433 6.96C42.7033 6.96 43.1513 7.112 43.4873 7.416C43.8393 7.72 44.0153 8.12 44.0153 8.616V22.44C44.0153 22.952 43.8473 23.368 43.5113 23.688C43.1913 23.992 42.7593 24.144 42.2153 24.144C41.6713 24.144 41.2313 23.992 40.8953 23.688C40.5753 23.368 40.4153 22.952 40.4153 22.44V22.248C40.0633 22.856 39.5593 23.336 38.9033 23.688C38.2633 24.024 37.5353 24.192 36.7193 24.192C35.7113 24.192 34.8073 23.936 34.0073 23.424C33.2233 22.896 32.6073 22.168 32.1593 21.24C31.7273 20.296 31.5113 19.216 31.5113 18C31.5113 16.784 31.7273 15.72 32.1593 14.808C32.6073 13.88 33.2233 13.168 34.0073 12.672C34.7913 12.176 35.6953 11.928 36.7193 11.928C37.5193 11.928 38.2393 12.096 38.8793 12.432C39.5353 12.768 40.0393 13.24 40.3913 13.848V8.544C40.3913 8.064 40.5513 7.68 40.8713 7.392C41.1913 7.104 41.6153 6.96 42.1433 6.96ZM37.7753 21.432C38.6233 21.432 39.2713 21.144 39.7193 20.568C40.1833 19.976 40.4153 19.136 40.4153 18.048C40.4153 16.96 40.1833 16.128 39.7193 15.552C39.2713 14.976 38.6233 14.688 37.7753 14.688C36.9273 14.688 36.2713 14.976 35.8073 15.552C35.3433 16.112 35.1113 16.928 35.1113 18C35.1113 19.088 35.3433 19.936 35.8073 20.544C36.2713 21.136 36.9273 21.432 37.7753 21.432Z" fill="#4BC7E3"/>
<path d="M70.848 20.496C71.168 20.496 71.424 20.624 71.616 20.88C71.824 21.136 71.928 21.464 71.928 21.864C71.928 22.136 71.848 22.392 71.688 22.632C71.528 22.856 71.304 23.048 71.016 23.208C70.472 23.496 69.84 23.736 69.12 23.928C68.4 24.104 67.736 24.192 67.128 24.192C65.848 24.192 64.728 23.944 63.768 23.448C62.824 22.952 62.096 22.248 61.584 21.336C61.072 20.408 60.816 19.32 60.816 18.072C60.816 16.872 61.064 15.808 61.56 14.88C62.056 13.952 62.744 13.232 63.624 12.72C64.504 12.192 65.504 11.928 66.624 11.928C67.696 11.928 68.632 12.168 69.432 12.648C70.248 13.112 70.88 13.784 71.328 14.664C71.776 15.528 72 16.544 72 17.712C72 18.064 71.912 18.336 71.736 18.528C71.576 18.704 71.344 18.792 71.04 18.792H64.32C64.432 19.736 64.72 20.424 65.184 20.856C65.648 21.272 66.312 21.48 67.176 21.48C67.64 21.48 68.056 21.424 68.424 21.312C68.792 21.2 69.2 21.048 69.648 20.856C69.872 20.76 70.088 20.68 70.296 20.616C70.504 20.536 70.688 20.496 70.848 20.496ZM66.72 14.424C66.032 14.424 65.48 14.648 65.064 15.096C64.648 15.528 64.4 16.16 64.32 16.992H68.952C68.904 16.144 68.688 15.504 68.304 15.072C67.936 14.64 67.408 14.424 66.72 14.424ZM78.6529 24.192C77.6769 24.192 76.8289 24.112 76.1089 23.952C75.3889 23.792 74.7569 23.536 74.2129 23.184C73.9729 23.04 73.7889 22.848 73.6609 22.608C73.5329 22.368 73.4689 22.096 73.4689 21.792C73.4689 21.424 73.5729 21.12 73.7809 20.88C73.9889 20.624 74.2449 20.496 74.5489 20.496C74.7569 20.496 74.9649 20.536 75.1729 20.616C75.3809 20.68 75.5969 20.76 75.8209 20.856C76.2689 21.064 76.7089 21.232 77.1409 21.36C77.5729 21.472 78.1089 21.528 78.7489 21.528C79.3089 21.528 79.7409 21.44 80.0449 21.264C80.3649 21.088 80.5249 20.848 80.5249 20.544C80.5249 20.32 80.4529 20.144 80.3089 20.016C80.1809 19.872 79.9329 19.744 79.5649 19.632C79.1969 19.52 78.6129 19.384 77.8129 19.224C76.3889 18.952 75.3649 18.544 74.7409 18C74.1169 17.456 73.8049 16.696 73.8049 15.72C73.8049 15 74.0209 14.352 74.4529 13.776C74.9009 13.2 75.5089 12.752 76.2769 12.432C77.0449 12.096 77.9089 11.928 78.8689 11.928C79.5569 11.928 80.2289 12.016 80.8849 12.192C81.5409 12.368 82.1249 12.616 82.6369 12.936C83.1329 13.24 83.3809 13.688 83.3809 14.28C83.3809 14.664 83.2769 14.984 83.0689 15.24C82.8609 15.496 82.6049 15.624 82.3009 15.624C81.9329 15.624 81.4929 15.48 80.9809 15.192C80.5809 14.984 80.2129 14.832 79.8769 14.736C79.5569 14.624 79.1729 14.568 78.7249 14.568C78.2289 14.568 77.8369 14.664 77.5489 14.856C77.2609 15.032 77.1169 15.28 77.1169 15.6C77.1169 15.936 77.2849 16.192 77.6209 16.368C77.9569 16.544 78.6049 16.72 79.5649 16.896C80.6369 17.104 81.4769 17.36 82.0849 17.664C82.6929 17.952 83.1329 18.32 83.4049 18.768C83.6769 19.216 83.8129 19.784 83.8129 20.472C83.8129 21.608 83.3409 22.512 82.3969 23.184C81.4689 23.856 80.2209 24.192 78.6529 24.192ZM92.319 21.504C92.799 21.536 93.151 21.656 93.375 21.864C93.599 22.072 93.711 22.376 93.711 22.776C93.711 23.24 93.527 23.592 93.159 23.832C92.791 24.072 92.263 24.168 91.575 24.12L90.903 24.072C88.103 23.848 86.703 22.384 86.703 19.68V14.928H85.743C85.215 14.928 84.815 14.816 84.543 14.592C84.271 14.352 84.135 14.016 84.135 13.584C84.135 13.136 84.271 12.8 84.543 12.576C84.815 12.336 85.215 12.216 85.743 12.216H86.703V10.344C86.703 9.816 86.863 9.4 87.183 9.096C87.519 8.792 87.967 8.64 88.527 8.64C89.087 8.64 89.527 8.792 89.847 9.096C90.167 9.4 90.327 9.816 90.327 10.344V12.216H92.007C93.095 12.216 93.639 12.672 93.639 13.584C93.639 14.016 93.503 14.352 93.231 14.592C92.959 14.816 92.551 14.928 92.007 14.928H90.327V19.944C90.327 20.424 90.439 20.792 90.663 21.048C90.887 21.288 91.215 21.424 91.647 21.456L92.319 21.504Z" fill="#FF6B6B"/>
<path d="M65.9046 8.1321C66.3247 7.41173 65.8024 6.50602 64.9608 6.50602H61.2129C60.6257 6.50602 60.1203 6.05776 60.0922 5.47482C60.0623 4.85212 60.5619 4.33735 61.1818 4.33735H67.7273C69.5348 4.33735 71 2.88094 71 1.08434C71 0.485494 70.5116 0 69.9091 0H63.3636C59.1462 0 55.7273 3.39831 55.7273 7.59036V16.1794C54.8455 15.651 53.7332 15.3253 52.4545 15.3253C49.221 15.3253 47 17.421 47 19.6626C47 21.8813 49.1889 24 52.4545 24C55.6881 24 57.9091 21.9043 57.9091 19.6626V10.8434H61.1818C63.1968 10.8434 64.9604 9.75159 65.9046 8.1321Z" fill="#FF6B6B"/>
</svg>
